<?xml version="1.0" encoding="utf-8"?>
<!-- Generator: Adobe Illustrator 22.1.0, SVG Export Plug-In . SVG Version: 6.00 Build 0)  -->
<svg version="1.1" id="Layer_2" xmlns="http://www.w3.org/2000/svg" xmlns:xlink="http://www.w3.org/1999/xlink" x="0px" y="0px"
	 width="605.9px" height="113.5px" viewBox="0 0 605.9 113.5" style="enable-background:new 0 0 605.9 113.5;" xml:space="preserve"
	>
<path style="fill:#E8E8E8;" d="M53.3,37.4h36l-11,43h-35L53.3,37.4z M79.7,98.4c8.5,0,16-5.9,17.9-14.2l10.2-44.4
	c2.3-9.9-5.3-19.4-15.5-19.4H46.8c-5,0-9.4,3.4-10.6,8.3l-17,69.7H79.7z"/>
<path style="fill:#E8E8E8;" d="M102.8,98.9l10.1-43.4c2.3-9.7,10.9-16.6,20.9-16.6h15.9l-4,17h-10.1c-2.3,0-4.3,1.6-4.8,3.8
	l-9.1,39.2H102.8z"/>
<path style="fill:#E8E8E8;" d="M184.5,98.9l-0.2-0.5h-13.5c-15.1,0-26.2-13.9-22.3-28.5l1.5-5.8c4-14.9,17.4-25.2,32.8-25.2h33.9
	l-15,60H184.5z M181.9,55.4c-7.4,0-13.7,5.2-15.1,12.4l-1.2,6c-0.8,3.9,2.3,7.6,6.2,7.6h15.3l6-26H181.9z"/>
<path style="fill:#E8E8E8;" d="M210.8,98.9l15-62.5c2.3-9.7,11-16.5,20.9-16.5h24l-4,17h-17.9c-2.7,0-5,1.8-5.7,4.4l-2.9,11.1h13
	l-4,18h-13l-6.6,28.5H210.8z"/>
<path style="fill:#E8E8E8;" d="M279.9,19.9l-14.6,58.9c-2.5,10.2,5.2,20.1,15.7,20.1H303l4.4-16h-19.5c-2.6,0-4.4-2.4-3.9-4.9
	l5.1-21.8h13.9l4-17.3h-13.5l5.1-19H279.9z"/>
<path style="fill:#E8E8E8;" d="M316.8,19.9l4.3,64.4c0.5,8.2,7.4,14.6,15.6,14.6h11.5l13-26.2l1.5,26.2H389l38.3-79h-23.1
	l-23.8,53.8l-4.2-53.8h-18.4l1.3,18.9l-19.1,36.6l-2.9-55.5H316.8z"/>
<path style="fill:#E8E8E8;" d="M455.4,98.9l-0.2-0.5h-13.5c-15.1,0-26.2-13.9-22.3-28.5l1.5-5.8c4-14.9,17.4-25.2,32.8-25.2h33.9
	l-15,60H455.4z M452.8,55.4c-7.4,0-13.7,5.2-15.1,12.4l-1.2,6c-0.8,3.9,2.3,7.6,6.2,7.6h15.3l6-26H452.8z"/>
<path style="fill:#E8E8E8;" d="M481.6,98.9l10.1-43.4c2.3-9.7,10.9-16.6,20.9-16.6h15.9l-4,17h-10.1c-2.3,0-4.3,1.6-4.8,3.8
	l-9.1,39.2H481.6z"/>
<path style="fill:#E8E8E8;" d="M590.1,38.9h-36.9c-10,0-18.6,7-20.6,16.8l0,0c-2.1,10.1,5.6,19.5,15.9,19.5H559c2.2,0,4,1.8,4,4v0
	c0,2.1-1.7,3.9-3.9,3.9h-32.6l-3.7,15.9h35.9c10.8,0,20.2-7.5,22.5-18.1v0c2.3-10.4-5.6-20.2-16.3-20.2h-11c-1.7,0-3.1-1.4-3.1-3.1
	v0c0-1.7,1.4-3.1,3.1-3.1h32.2L590.1,38.9z"/>
</svg>
